<svg width="177" height="32" viewBox="0 0 177 32" fill="none" xmlns="http://www.w3.org/2000/svg">
<path d="M14.8225 7.32418C16.845 7.32418 18.4846 5.68461 18.4846 3.66209C18.4846 1.63957 16.845 0 14.8225 0C12.8 0 11.1604 1.63957 11.1604 3.66209C11.1604 5.68461 12.8 7.32418 14.8225 7.32418Z" fill="#7AB2E1"/>
<path d="M18.4846 14.8244C18.4846 16.8298 16.8279 18.4865 14.8225 18.4865C12.8171 18.4865 11.1604 16.8298 11.1604 14.8244C11.1604 12.819 12.8171 11.1623 14.8225 11.1623C16.8279 11.1623 18.4846 12.819 18.4846 14.8244Z" fill="#7AB2E1"/>
<path d="M7.32418 14.8244C7.32418 16.8298 5.66752 18.4865 3.66209 18.4865C1.65666 18.4865 0 16.8298 0 14.8244C0 12.819 1.65666 11.1623 3.66209 11.1623C5.66752 11.1623 7.32418 12.819 7.32418 14.8244Z" fill="#004B93"/>
<path d="M29.645 14.8244C29.645 16.8298 27.9883 18.4865 25.9829 18.4865C23.9775 18.4865 22.3208 16.8298 22.3208 14.8244C22.3208 12.819 23.9775 11.1623 25.9829 11.1623C27.9883 11.1623 29.645 12.819 29.645 14.8244Z" fill="#7AB2E1"/>
<path d="M14.8225 29.6449C16.845 29.6449 18.4846 28.0053 18.4846 25.9828C18.4846 23.9603 16.845 22.3207 14.8225 22.3207C12.8 22.3207 11.1604 23.9603 11.1604 25.9828C11.1604 28.0053 12.8 29.6449 14.8225 29.6449Z" fill="#7AB2E1"/>
<path d="M47.7818 18.4854V13.2539H40.9808V18.4854H39.5857V6.97601H40.9808V11.946H47.7818V6.97601H49.1769V18.4854H47.7818Z" fill="#004B93"/>
<path d="M53.0139 18.4858V6.97632H59.4662V8.19702H54.409V12.0335H58.5942V13.2542H54.409V17.3522H59.6405V18.5729H53.0139V18.4858Z" fill="#004B93"/>
<path d="M62.4307 18.4858V6.97632H63.8257V17.2651H68.9701V18.4858H62.4307Z" fill="#004B93"/>
<path d="M76.8173 8.89344C76.207 8.54467 75.9454 8.45748 75.5966 8.28309C75.1607 8.10871 74.4631 8.02151 74.0272 8.02151C72.7193 8.02151 71.8474 8.63186 71.8474 9.67817C71.8474 10.5501 72.3705 10.9861 74.7247 12.2068C75.5095 12.6427 76.1198 12.9915 76.5558 13.3403C77.0789 13.7762 77.4277 14.561 77.4277 15.4329C77.4277 17.4383 75.9454 18.659 73.6784 18.659C72.8937 18.659 72.1961 18.4846 71.5858 18.3102C71.1498 18.1359 70.8882 17.9615 70.1035 17.4383L70.8011 16.3048C71.4114 16.7408 71.7602 16.9152 72.1089 17.0896C72.6321 17.2639 73.1553 17.3511 73.7656 17.3511C75.1607 17.3511 75.9454 16.7408 75.9454 15.6073C75.9454 15.2585 75.8582 14.9969 75.771 14.8225C75.5967 14.4738 75.2479 14.125 74.8119 13.8634C74.6375 13.7762 73.94 13.4275 72.8937 12.8171C71.1498 11.858 70.4523 10.9861 70.4523 9.76537C70.4523 7.93432 71.9346 6.71362 74.2888 6.71362C74.9863 6.71362 75.5967 6.80082 76.207 6.9752C76.643 7.14959 76.9917 7.23678 77.6021 7.67274L76.8173 8.89344Z" fill="#004B93"/>
<path d="M80.3052 18.4858V6.97632H86.7574V8.19702H81.7003V12.0335H85.8855V13.2542H81.7003V17.3522H86.9318V18.5729H80.3052V18.4858Z" fill="#004B93"/>
<path d="M98.3539 18.4858H93.6455V6.97632H97.8308C99.313 6.97632 100.098 7.1507 100.708 7.76105C101.231 8.28421 101.58 9.06894 101.58 9.85368C101.58 10.464 101.318 11.1616 100.882 11.6847C100.359 12.2951 99.9234 12.4695 98.9643 12.5566C100.708 12.5566 101.842 13.6902 101.842 15.5212C101.929 17.4394 100.621 18.4858 98.3539 18.4858ZM97.3948 8.72017H95.9997V11.6847H97.3076C98.5283 11.6847 99.2258 11.1616 99.2258 10.2024C99.1386 9.24333 98.5283 8.72017 97.3948 8.72017ZM97.3948 13.5158H95.9997V16.6547H97.3948C98.0923 16.6547 98.3539 16.6547 98.7027 16.4803C99.2258 16.2187 99.4874 15.6956 99.4874 15.1724C99.4874 14.1261 98.7899 13.5158 97.3948 13.5158Z" fill="#004B93"/>
<path d="M104.108 18.4858V6.97632H111.083V8.80736H106.288V11.6847H110.211V13.5158H106.288V16.5675H111.345V18.3986H104.108V18.4858Z" fill="#004B93"/>
<path d="M119.367 18.4858L116.752 13.8645H115.618V18.4858H113.438V6.97632H117.275C118.931 6.97632 119.716 7.1507 120.414 7.84825C121.024 8.45859 121.373 9.24333 121.373 10.3768C121.373 11.2488 121.198 11.9463 120.762 12.5566C120.326 13.0798 119.89 13.3414 118.931 13.603L121.809 18.5729H119.367V18.4858ZM117.1 8.80737H115.705V11.9463H117.1C118.495 11.9463 119.106 11.4231 119.106 10.2896C119.106 9.24333 118.495 8.80737 117.1 8.80737Z" fill="#004B93"/>
<path d="M132.01 18.3102C130.789 18.5718 130.092 18.659 129.133 18.659C125.296 18.659 122.68 16.2176 122.68 12.6427C122.68 10.8989 123.378 9.4166 124.599 8.28309C125.819 7.23678 127.127 6.71362 129.133 6.71362C130.005 6.71362 130.789 6.80082 131.574 6.9752C132.097 7.14959 132.446 7.23678 133.318 7.58555L132.795 9.4166C132.359 9.24221 132.097 9.15502 131.836 9.06783C131.051 8.80625 130.179 8.63186 129.481 8.63186C126.866 8.63186 125.122 10.2013 125.122 12.4683C125.122 14.8225 127.127 16.6536 129.656 16.6536C130.179 16.6536 130.441 16.5664 131.138 16.392V13.2531H133.318V17.9615C132.62 18.1359 132.272 18.3102 132.01 18.3102Z" fill="#004B93"/>
<path d="M136.021 18.4858V6.97632H142.996V8.80736H138.201V11.6847H142.124V13.5158H138.201V16.5675H143.258V18.3986H136.021V18.4858Z" fill="#004B93"/>
<path d="M153.111 18.5729L148.141 11.1616C148.141 11.0744 148.054 10.9872 147.88 10.7256C147.792 10.5512 147.792 10.464 147.705 10.464C147.618 10.2896 147.618 10.2896 147.531 10.0281V18.4858H145.438V6.97632H147.967L152.762 14.5621C152.762 14.5621 152.85 14.6493 152.85 14.8237C152.937 14.9109 152.937 14.998 152.937 15.0852L153.024 15.3468L153.111 15.5212V6.97632H155.204V18.5729H153.111Z" fill="#004B93"/>
<path d="M44.5554 29.3828V26.2439H40.4574V29.3828H39.5854V22.4946H40.4574V25.4591H44.5554V22.4946H45.4274V29.3828H44.5554Z" fill="#004B93"/>
<path d="M50.8331 29.5582C50.2227 29.5582 49.9611 29.3839 49.8739 28.8607C49.6124 29.0351 49.5252 29.1223 49.3508 29.2095C49.0892 29.3839 48.6532 29.471 48.3045 29.471C47.5197 29.471 46.9966 28.9479 46.9966 28.2503C46.9966 27.5528 47.3454 27.1168 48.0429 26.9425L49.6996 26.5937V25.7218C49.6996 25.373 49.438 25.1114 48.8276 25.1114C48.3045 25.1114 48.1301 25.2858 48.1301 25.5474C48.1301 25.6346 48.1301 25.6346 48.1301 25.7218L47.3454 25.8961C47.2582 25.809 47.2582 25.7218 47.2582 25.6346C47.2582 25.0242 47.9557 24.5883 49.002 24.5883C49.9611 24.5883 50.5715 25.0242 50.5715 25.809V28.3375V28.6863C50.5715 28.7735 50.7459 28.8607 50.9203 28.9479L50.8331 29.5582ZM49.8739 27.204L48.1301 27.64C47.9557 27.9016 47.9557 27.9888 47.9557 28.1632C47.9557 28.5119 48.2173 28.7735 48.5661 28.7735C48.9148 28.7735 49.1764 28.6863 49.8739 28.1632V27.204Z" fill="#004B93"/>
<path d="M55.5413 29.3829V28.4238C55.0182 29.2085 54.4078 29.5573 53.6231 29.5573C52.8383 29.5573 52.3152 29.1213 52.3152 28.2494V24.6745H53.1871V28.075C53.1871 28.6854 53.3615 28.8597 53.7103 28.8597C54.2334 28.8597 54.931 28.3366 55.5413 27.5519V24.6745H56.326V29.3829H55.5413Z" fill="#004B93"/>
<path d="M58.0708 29.3844V21.7986H58.8555V29.3844H58.0708ZM60.861 29.3844L58.9427 26.7686L60.861 24.5888H61.9073L59.9018 26.7686L61.9073 29.2972H60.861V29.3844Z" fill="#004B93"/>
<path d="M63.3016 26.9433C63.3016 28.0769 63.9119 28.7744 64.8711 28.7744C65.307 28.7744 65.5686 28.6872 66.0918 28.3384L66.4405 28.9488C65.743 29.3847 65.307 29.5591 64.6967 29.5591C63.3888 29.5591 62.5168 28.5128 62.5168 27.0305C62.5168 25.5483 63.3888 24.502 64.7839 24.502C65.9174 24.502 66.6149 25.2867 66.6149 26.5074V26.9433H63.3016ZM64.6095 25.1995C63.9119 25.1995 63.476 25.6355 63.3016 26.333H65.6558C65.6558 25.6355 65.307 25.1995 64.6095 25.1995Z" fill="#004B93"/>
<path d="M67.749 29.3844V21.7986H68.5338V29.3844H67.749Z" fill="#004B93"/>
<path d="M73.6783 29.5582C73.0679 29.5582 72.8064 29.3839 72.7192 28.8607C72.4576 29.0351 72.3704 29.1223 72.196 29.2095C71.9344 29.3839 71.4985 29.471 71.1497 29.471C70.365 29.471 69.8418 28.9479 69.8418 28.2503C69.8418 27.5528 70.1906 27.1168 70.8881 26.9425L72.5448 26.5937V25.7218C72.5448 25.373 72.2832 25.1114 71.6728 25.1114C71.1497 25.1114 70.9753 25.2858 70.9753 25.5474C70.9753 25.6346 70.9753 25.6346 70.9753 25.7218L70.1906 25.8961C70.1034 25.809 70.1034 25.7218 70.1034 25.6346C70.1034 25.0242 70.8009 24.5883 71.8472 24.5883C72.8064 24.5883 73.4167 25.0242 73.4167 25.809V28.3375V28.6863C73.4167 28.7735 73.5911 28.8607 73.7655 28.9479L73.6783 29.5582ZM72.632 27.204L70.8881 27.64C70.8009 27.9016 70.7137 27.9888 70.7137 28.1632C70.7137 28.5119 70.9753 28.7735 71.3241 28.7735C71.6728 28.7735 71.9344 28.6863 72.632 28.1632V27.204Z" fill="#004B93"/>
<path d="M78.3863 29.3839V25.9833C78.3863 25.6346 78.3863 25.5474 78.2991 25.4602C78.2119 25.2858 78.0375 25.1986 77.7759 25.1986C77.2528 25.1986 76.8168 25.5474 75.9449 26.5065V29.3839H75.1602V24.6754H75.9449V25.6346C76.2937 25.2858 76.3809 25.1986 76.5552 25.0242C76.904 24.7626 77.34 24.5883 77.8631 24.5883C78.7351 24.5883 79.0838 25.0242 79.0838 25.8961V29.471H78.3863V29.3839Z" fill="#004B93"/>
<path d="M84.0546 29.3844V28.7741C83.6187 29.21 83.0955 29.4716 82.4852 29.4716C81.3517 29.4716 80.4797 28.5125 80.4797 27.1174C80.4797 25.5479 81.526 24.5016 82.9211 24.5016C83.4443 24.5016 83.7059 24.5888 84.0546 24.8504V21.7986H84.8394V29.3844H84.0546ZM84.0546 26.3327C84.0546 25.9839 84.0546 25.8967 83.9674 25.7223C83.7931 25.4607 83.5315 25.2864 83.0083 25.2864C81.962 25.2864 81.3517 25.9839 81.3517 27.1174C81.3517 28.0765 81.8748 28.7741 82.6596 28.7741C82.9211 28.7741 83.2699 28.6869 83.6187 28.4253C83.7931 28.2509 83.8803 28.1637 84.1418 27.9021V26.3327H84.0546Z" fill="#004B93"/>
<path d="M92.3372 29.3829V28.4238C91.8141 29.2085 91.2037 29.5573 90.419 29.5573C89.6342 29.5573 89.1111 29.1213 89.1111 28.2494V24.6745H89.8958V28.075C89.8958 28.6854 90.0702 28.8597 90.419 28.8597C90.9421 28.8597 91.6397 28.3366 92.25 27.5519V24.6745H93.0347V29.3829H92.3372Z" fill="#004B93"/>
<path d="M98.0047 29.3839V25.9833C98.0047 25.6346 98.0047 25.5474 97.9175 25.4602C97.8303 25.2858 97.6559 25.1986 97.3944 25.1986C96.8712 25.1986 96.4352 25.5474 95.5633 26.5065V29.3839H94.7786V24.6754H95.5633V25.6346C95.9121 25.2858 95.9993 25.1986 96.1737 25.0242C96.5224 24.7626 96.9584 24.5883 97.4816 24.5883C98.3535 24.5883 98.7023 25.0242 98.7023 25.8961V29.471H98.0047V29.3839Z" fill="#004B93"/>
<path d="M100.969 23.5409C100.708 23.5409 100.446 23.2793 100.446 23.0177C100.446 22.7561 100.708 22.4946 100.969 22.4946C101.231 22.4946 101.492 22.7561 101.492 23.0177C101.492 23.2793 101.231 23.5409 100.969 23.5409ZM100.62 29.3828V24.6744H101.405V29.3828H100.62Z" fill="#004B93"/>
<path d="M104.98 29.5573H104.282L102.539 24.6745H103.411L104.718 28.511V28.6854V28.511L106.026 24.6745H106.898L104.98 29.5573Z" fill="#004B93"/>
<path d="M108.206 26.9433C108.206 28.0769 108.816 28.7744 109.775 28.7744C110.211 28.7744 110.473 28.6872 110.996 28.3384L111.345 28.9488C110.647 29.3847 110.211 29.5591 109.601 29.5591C108.293 29.5591 107.421 28.5128 107.421 27.0305C107.421 25.5483 108.293 24.502 109.688 24.502C110.821 24.502 111.519 25.2867 111.519 26.5074V26.9433H108.206ZM109.601 25.1995C108.903 25.1995 108.467 25.6355 108.293 26.333H110.647C110.56 25.6355 110.211 25.1995 109.601 25.1995Z" fill="#004B93"/>
<path d="M115.007 25.4611C114.833 25.2867 114.746 25.2867 114.659 25.2867C114.397 25.2867 113.961 25.7227 113.525 26.5074V29.2976H112.74V24.5891H113.525V25.4611C114.136 24.6763 114.397 24.502 114.746 24.502C114.92 24.502 115.182 24.5891 115.356 24.8507L115.007 25.4611Z" fill="#004B93"/>
<path d="M117.797 29.5581C117.623 29.5581 117.361 29.5581 117.1 29.4709C116.664 29.3837 116.489 29.2965 115.966 29.035L116.315 28.3374C116.489 28.4246 116.576 28.5118 116.664 28.5118C117.012 28.6862 117.448 28.7734 117.71 28.7734C118.233 28.7734 118.582 28.5118 118.582 28.163C118.582 28.0758 118.582 27.9015 118.495 27.8143C118.32 27.5527 118.059 27.3783 117.274 27.0295C116.315 26.6808 116.053 26.332 116.053 25.7216C116.053 24.9369 116.751 24.4138 117.884 24.4138C118.059 24.4138 118.32 24.4138 118.495 24.501C118.843 24.5881 119.018 24.6753 119.454 24.8497L119.105 25.4601C118.843 25.2857 118.669 25.1985 118.407 25.1113C118.233 25.0241 118.059 25.0241 117.884 25.0241C117.361 25.0241 117.012 25.2857 117.012 25.6345C117.012 25.7216 117.012 25.896 117.1 25.896C117.274 26.0704 117.448 26.1576 118.233 26.5064C119.279 26.9423 119.541 27.2911 119.541 27.9887C119.454 29.035 118.843 29.5581 117.797 29.5581Z" fill="#004B93"/>
<path d="M121.373 23.5409C121.111 23.5409 120.849 23.2793 120.849 23.0177C120.849 22.7561 121.111 22.4946 121.373 22.4946C121.634 22.4946 121.896 22.7561 121.896 23.0177C121.896 23.2793 121.634 23.5409 121.373 23.5409ZM120.937 29.3828V24.6744H121.721V29.3828H120.937Z" fill="#004B93"/>
<path d="M124.512 29.5585C123.988 29.5585 123.64 29.1225 123.64 28.5122V25.2861H122.855V24.8501L123.64 24.6757V23.2806H124.424V24.6757H125.645V25.2861H124.424V27.989V28.1634C124.424 28.3378 124.424 28.425 124.424 28.425C124.424 28.5994 124.512 28.6866 124.686 28.6866C124.86 28.6866 125.035 28.5994 125.384 28.3378L125.732 28.861C125.122 29.3841 124.86 29.5585 124.512 29.5585Z" fill="#004B93"/>
<path d="M127.127 26.9433C127.127 28.0769 127.737 28.7744 128.696 28.7744C129.132 28.7744 129.394 28.6872 129.917 28.3384L130.266 28.9488C129.568 29.3847 129.132 29.5591 128.522 29.5591C127.214 29.5591 126.342 28.5128 126.342 27.0305C126.342 25.5483 127.214 24.502 128.609 24.502C129.743 24.502 130.44 25.2867 130.44 26.5074V26.9433H127.127ZM128.522 25.1995C127.825 25.1995 127.389 25.6355 127.214 26.333H129.568C129.568 25.6355 129.132 25.1995 128.522 25.1995Z" fill="#004B93"/>
<path d="M132.62 29.5585C132.096 29.5585 131.748 29.1225 131.748 28.5122V25.2861H130.963V24.8501L131.748 24.6757V23.2806H132.532V24.6757H133.753V25.2861H132.532V27.989V28.1634C132.532 28.3378 132.532 28.425 132.532 28.425C132.532 28.5994 132.62 28.6866 132.794 28.6866C132.968 28.6866 133.143 28.5994 133.491 28.3378L133.84 28.861C133.317 29.3841 133.056 29.5585 132.62 29.5585Z" fill="#004B93"/>
<path d="M136.457 29.5581C136.283 29.5581 136.021 29.5581 135.759 29.4709C135.324 29.3837 135.149 29.2965 134.626 29.035L134.975 28.3374C135.149 28.4246 135.236 28.5118 135.324 28.5118C135.672 28.6862 136.108 28.7734 136.37 28.7734C136.893 28.7734 137.242 28.5118 137.242 28.163C137.242 28.0758 137.242 27.9015 137.155 27.8143C136.98 27.5527 136.719 27.3783 135.934 27.0295C134.975 26.6808 134.713 26.332 134.713 25.7216C134.713 24.9369 135.411 24.4138 136.544 24.4138C136.719 24.4138 136.98 24.4138 137.155 24.501C137.503 24.5881 137.678 24.6753 138.114 24.8497L137.765 25.4601C137.503 25.2857 137.329 25.1985 137.067 25.1113C136.893 25.0241 136.719 25.0241 136.544 25.0241C136.021 25.0241 135.672 25.2857 135.672 25.6345C135.672 25.7216 135.672 25.896 135.759 25.896C135.934 26.0704 136.108 26.1576 136.893 26.5064C137.939 26.9423 138.201 27.2911 138.201 27.9887C138.027 29.035 137.416 29.5581 136.457 29.5581Z" fill="#004B93"/>
<path d="M141.078 29.5581C140.903 29.5581 140.642 29.5581 140.38 29.4709C139.944 29.3837 139.77 29.2965 139.247 29.035L139.595 28.3374C139.77 28.4246 139.857 28.5118 139.944 28.5118C140.293 28.6862 140.729 28.7734 140.99 28.7734C141.514 28.7734 141.862 28.5118 141.862 28.163C141.862 28.0758 141.862 27.9015 141.775 27.8143C141.601 27.5527 141.339 27.3783 140.554 27.0295C139.595 26.6808 139.334 26.332 139.334 25.7216C139.334 24.9369 140.031 24.4138 141.165 24.4138C141.339 24.4138 141.601 24.4138 141.775 24.501C142.124 24.5881 142.298 24.6753 142.734 24.8497L142.386 25.4601C142.124 25.2857 141.95 25.1985 141.688 25.1113C141.514 25.0241 141.339 25.0241 141.165 25.0241C140.642 25.0241 140.293 25.2857 140.293 25.6345C140.293 25.7216 140.293 25.896 140.38 25.896C140.554 26.0704 140.729 26.1576 141.514 26.5064C142.56 26.9423 142.821 27.2911 142.821 27.9887C142.734 29.035 142.124 29.5581 141.078 29.5581Z" fill="#004B93"/>
<path d="M144.478 31.2148C144.304 31.5636 144.216 31.6507 143.868 31.9995L143.344 31.5636C143.693 31.0404 143.78 30.9532 143.955 30.6044C144.129 30.2557 144.216 29.9069 144.216 29.3837V24.5881H145.001V30.0813C144.827 30.6916 144.74 30.866 144.478 31.2148ZM144.652 23.4546C144.391 23.4546 144.129 23.1931 144.129 22.9315C144.129 22.6699 144.391 22.4083 144.652 22.4083C144.914 22.4083 145.176 22.6699 145.176 22.9315C145.176 23.1931 144.914 23.4546 144.652 23.4546Z" fill="#004B93"/>
<path d="M149.972 29.3829V28.4238C149.449 29.2085 148.838 29.5573 148.054 29.5573C147.269 29.5573 146.746 29.1213 146.746 28.2494V24.6745H147.531V28.075C147.531 28.6854 147.705 28.8597 148.054 28.8597C148.577 28.8597 149.274 28.3366 149.885 27.5519V24.6745H150.67V29.3829H149.972Z" fill="#004B93"/>
<path d="M152.413 29.3844V21.7986H153.198V29.3844H152.413ZM155.203 29.3844L153.285 26.7686L155.203 24.5888H156.25L154.244 26.7686L156.25 29.2972H155.203V29.3844Z" fill="#004B93"/>
<path d="M157.644 26.9433C157.644 28.0769 158.254 28.7744 159.214 28.7744C159.65 28.7744 159.911 28.6872 160.434 28.3384L160.783 28.9488C160.086 29.3847 159.65 29.5591 159.039 29.5591C157.731 29.5591 156.859 28.5128 156.859 27.0305C156.859 25.5483 157.731 24.502 159.126 24.502C160.26 24.502 160.957 25.2867 160.957 26.5074V26.9433H157.644ZM158.952 25.1995C158.254 25.1995 157.819 25.6355 157.644 26.333H159.998C159.998 25.6355 159.65 25.1995 158.952 25.1995Z" fill="#004B93"/>
<path d="M165.231 29.3844V25.9839C165.231 25.6351 165.231 25.5479 165.143 25.4607C165.056 25.2864 164.882 25.1992 164.707 25.1992C164.184 25.1992 163.661 25.5479 162.876 26.507V29.3844H162.092V21.7986H162.876V25.6351C163.225 25.2864 163.312 25.1992 163.487 25.0248C163.835 24.7632 164.271 24.5888 164.795 24.5888C165.666 24.5888 166.015 25.0248 166.015 25.8967V29.4716H165.231V29.3844Z" fill="#004B93"/>
<path d="M170.898 29.3829V28.4238C170.375 29.2085 169.765 29.5573 168.98 29.5573C168.195 29.5573 167.672 29.1213 167.672 28.2494V24.6745H168.457V28.075C168.457 28.6854 168.631 28.8597 168.98 28.8597C169.503 28.8597 170.2 28.3366 170.811 27.5519V24.6745H171.596V29.3829H170.898Z" fill="#004B93"/>
<path d="M174.908 29.5581C174.734 29.5581 174.472 29.5581 174.211 29.4709C173.775 29.3837 173.601 29.2965 173.077 29.035L173.426 28.3374C173.601 28.4246 173.688 28.5118 173.775 28.5118C174.124 28.6862 174.56 28.7734 174.821 28.7734C175.344 28.7734 175.693 28.5118 175.693 28.163C175.693 28.0758 175.693 27.9015 175.606 27.8143C175.432 27.5527 175.17 27.3783 174.385 27.0295C173.426 26.6808 173.165 26.332 173.165 25.7216C173.165 24.9369 173.862 24.4138 174.996 24.4138C175.17 24.4138 175.432 24.4138 175.606 24.501C175.955 24.5881 176.129 24.6753 176.565 24.8497L176.216 25.4601C175.955 25.2857 175.78 25.1985 175.519 25.1113C175.344 25.0241 175.17 25.0241 174.996 25.0241C174.472 25.0241 174.124 25.2857 174.124 25.6345C174.124 25.7216 174.124 25.896 174.211 25.896C174.385 26.0704 174.56 26.1576 175.344 26.5064C176.391 26.9423 176.652 27.2911 176.652 27.9887C176.565 29.035 175.955 29.5581 174.908 29.5581Z" fill="#004B93"/>
</svg>
